<?xml version="1.0" encoding="utf-8"?>
<!-- Generator: Adobe Illustrator 24.0.1, SVG Export Plug-In . SVG Version: 6.00 Build 0)  -->
<svg version="1.1" id="Layer_1" xmlns="http://www.w3.org/2000/svg" xmlns:xlink="http://www.w3.org/1999/xlink" x="0px" y="0px"
	 viewBox="0 0 360 194.14" style="enable-background:new 0 0 360 194.14;" xml:space="preserve">
<style type="text/css">
	.st0{fill:#FFAC2C;}
	.st1{fill:#FFFFFF;}
	.st2{fill:none;stroke:#FFAC2C;stroke-width:5;stroke-miterlimit:10;}
	.st3{fill:#FFFFFF;stroke:#FFAC2C;stroke-width:3;stroke-miterlimit:10;}
	.st4{fill:none;stroke:#FFAC2C;stroke-width:3;stroke-miterlimit:10;}
	.st5{fill:none;stroke:#FFAC2C;stroke-width:2;stroke-miterlimit:10;}
	.st6{fill:#FF900B;}
	.st7{fill:#0463E4;}
	.st8{font-family:'Roboto-Black';}
	.st9{font-size:35.9326px;}
	.st10{fill:#FFFFFF;stroke:#0463E4;stroke-width:5;stroke-miterlimit:10;}
	.st11{fill:#FFFFFF;stroke:#0463E4;stroke-width:3;stroke-miterlimit:10;}
	.st12{fill:none;stroke:#0463E4;stroke-width:3;stroke-miterlimit:10;}
	.st13{fill:none;stroke:#0463E4;stroke-width:2;stroke-miterlimit:10;}
	.st14{fill:#045BBA;}
</style>
<g>
	<g>
		<path class="st7" d="M279.25,111.2h-3.9v7.04h3.9c1.17,0,2.05-0.31,2.64-0.92c0.59-0.62,0.89-1.47,0.89-2.58
			c0-1.1-0.3-1.97-0.9-2.59C281.29,111.52,280.41,111.2,279.25,111.2z"/>
		<path class="st7" d="M327.15,95.33H161.11c-12.74,0-23.07,10.33-23.07,23.07v0c0,12.74,10.33,23.07,23.07,23.07h166.04
			c12.74,0,23.07-10.33,23.07-23.07v0C350.21,105.65,339.89,95.33,327.15,95.33z M195.75,111.22h-7.67v20.79h-6.16v-20.79h-7.53
			v-4.75h21.35V111.22z M218.39,123.19c0,1.9-0.4,3.54-1.21,4.92c-0.81,1.39-1.96,2.44-3.47,3.17c-1.51,0.73-3.29,1.09-5.35,1.09
			c-3.11,0-5.56-0.81-7.35-2.42s-2.7-3.82-2.74-6.63v-16.84h6.19v16.97c0.07,2.8,1.37,4.19,3.89,4.19c1.27,0,2.24-0.35,2.89-1.05
			c0.66-0.7,0.98-1.84,0.98-3.42v-16.69h6.16V123.19z M242.28,111.22h-7.67v20.79h-6.16v-20.79h-7.53v-4.75h21.35V111.22z
			 M266.02,119.76c0,2.49-0.46,4.7-1.39,6.61c-0.92,1.92-2.24,3.39-3.94,4.43c-1.7,1.04-3.64,1.55-5.82,1.55
			c-2.18,0-4.11-0.5-5.79-1.5c-1.68-1-3-2.43-3.94-4.29c-0.94-1.86-1.44-3.99-1.48-6.4v-1.44c0-2.5,0.46-4.71,1.38-6.62
			c0.92-1.91,2.23-3.39,3.95-4.43c1.71-1.04,3.66-1.56,5.85-1.56c2.16,0,4.09,0.52,5.79,1.54c1.7,1.03,3.02,2.49,3.96,4.4
			c0.94,1.9,1.42,4.08,1.43,6.54V119.76z M289.8,132.01h-6.6l-4.51-9.04h-3.33v9.04h-6.16v-25.55h10.05c3.03,0,5.4,0.67,7.11,2.02
			c1.71,1.34,2.56,3.24,2.56,5.7c0,1.78-0.36,3.25-1.08,4.42c-0.72,1.17-1.84,2.12-3.38,2.84l5.33,10.31V132.01z M313.55,128.85
			c-0.95,1.05-2.33,1.9-4.16,2.54c-1.82,0.64-3.82,0.97-6,0.97c-3.35,0-6.02-1.02-8.02-3.07c-2-2.05-3.07-4.9-3.21-8.54l-0.02-2.21
			c0-2.51,0.44-4.71,1.33-6.59c0.89-1.88,2.16-3.32,3.82-4.33c1.66-1.01,3.57-1.52,5.75-1.52c3.18,0,5.65,0.73,7.41,2.18
			c1.76,1.46,2.79,3.63,3.08,6.52h-5.93c-0.21-1.43-0.67-2.44-1.37-3.05c-0.7-0.61-1.7-0.91-2.98-0.91c-1.54,0-2.74,0.66-3.58,1.97
			c-0.84,1.31-1.27,3.18-1.28,5.61v1.54c0,2.55,0.44,4.47,1.31,5.75c0.87,1.28,2.24,1.92,4.11,1.92c1.6,0,2.8-0.36,3.58-1.07v-3.96
			h-4.28v-4.23h10.44V128.85z M337.17,123.19c0,1.9-0.4,3.54-1.21,4.92c-0.81,1.39-1.96,2.44-3.47,3.17s-3.29,1.09-5.35,1.09
			c-3.11,0-5.56-0.81-7.35-2.42c-1.79-1.61-2.7-3.82-2.74-6.63v-16.84h6.19v16.97c0.07,2.8,1.37,4.19,3.89,4.19
			c1.27,0,2.24-0.35,2.89-1.05c0.66-0.7,0.98-1.84,0.98-3.42v-16.69h6.16V123.19z"/>
		<path class="st7" d="M254.85,110.94c-3.09,0-4.72,2.32-4.9,6.95l-0.02,1.88c0,2.5,0.42,4.43,1.25,5.77
			c0.83,1.35,2.06,2.02,3.7,2.02c1.56,0,2.75-0.66,3.6-1.98c0.84-1.32,1.27-3.22,1.28-5.7v-1.18c0-2.54-0.42-4.47-1.27-5.78
			C257.64,111.6,256.42,110.94,254.85,110.94z"/>
	</g>
</g>
<g>
	<text transform="matrix(1 0 0 1 175.9956 132.0116)" class="st0 st8 st9">TUTORGU</text>
</g>
<g>
	<circle class="st10" cx="117.89" cy="118.54" r="53.78"/>
	<g>
		<circle class="st11" cx="97.84" cy="112.75" r="16.01"/>
		<circle class="st11" cx="140.41" cy="112.38" r="16.01"/>
		<line class="st12" x1="83.83" y1="105" x2="71.79" y2="92.96"/>
		<line class="st12" x1="152.52" y1="101.91" x2="163.73" y2="90.7"/>
		<path class="st13" d="M111.38,104.24c0,0,7.43-8.84,15.27,0"/>
	</g>
</g>
<g>
	<path class="st14" d="M56.34,79.41c0,0-1.57,18.7,2.69,18.42c4.26-0.28,12.68-8.52,29.65-7.18c16.98,1.34,37.75,5.05,50.31-17.17
		c12.56-22.22-16.06-28.62-16.06-28.62L56.34,79.41L56.34,79.41z"/>
	<polygon class="st7" points="92.44,78.04 6.88,85.08 5.1,81.27 87.13,20.72 169.98,11.04 171.57,14.45 92.44,78.04 	"/>
	<g>
		<g>
			<path class="st0" d="M34.21,142.47c0.5-1.76,2.34-2.78,4.1-2.28c1.76,0.5,2.78,2.34,2.28,4.1c-0.5,1.76-2.34,2.78-4.1,2.28
				C34.73,146.07,33.71,144.23,34.21,142.47L34.21,142.47z"/>
			<path class="st0" d="M37.06,143.4c-3.43-0.27-4.23,30.96-4.23,30.96s2.24,1.05,3.34,0.8c1.1-0.25,1.66-4.46,1.66-4.46l0.11,4.42
				c0,0,3.76,0.13,5.07-0.78C43,174.33,42.49,143.82,37.06,143.4L37.06,143.4z"/>
		</g>
	</g>
	<polygon class="st0" points="35.95,144.1 36.57,75.88 37.01,75.55 81.7,42.49 83.3,44.67 39.06,77.39 38.06,143.98 	"/>
</g>
</svg>
