<svg xmlns="http://www.w3.org/2000/svg" width="41.578" height="36.655" viewBox="0 0 41.578 36.655"><path d="M20.789,36.655a2.451,2.451,0,0,1-1.607-.6c-1.68-1.455-3.3-2.823-4.728-4.029l-.007-.006c-4.189-3.537-7.806-6.592-10.323-9.6C1.31,19.056,0,15.866,0,12.382A12.809,12.809,0,0,1,3.3,3.587,11.228,11.228,0,0,1,11.615,0a10.52,10.52,0,0,1,6.533,2.235,13.3,13.3,0,0,1,2.641,2.733,13.3,13.3,0,0,1,2.641-2.733A10.52,10.52,0,0,1,29.963,0,11.229,11.229,0,0,1,38.28,3.587a12.809,12.809,0,0,1,3.3,8.795c0,3.484-1.31,6.674-4.124,10.037-2.517,3.009-6.134,6.064-10.322,9.6C25.7,33.228,24.08,34.6,22.4,36.057a2.453,2.453,0,0,1-1.607.6ZM11.615,2.414A8.809,8.809,0,0,0,5.089,5.223a10.419,10.419,0,0,0-2.654,7.159c0,2.93,1.1,5.551,3.564,8.5,2.382,2.848,5.925,5.84,10.027,9.3l.008.006c1.434,1.211,3.06,2.584,4.752,4.05,1.7-1.469,3.33-2.844,4.767-4.057,4.1-3.464,7.645-6.455,10.027-9.3,2.464-2.947,3.563-5.567,3.563-8.5A10.419,10.419,0,0,0,36.49,5.223a8.809,8.809,0,0,0-6.526-2.809,8.125,8.125,0,0,0-5.043,1.73A11.74,11.74,0,0,0,22.11,7.366a1.545,1.545,0,0,1-2.641,0,11.729,11.729,0,0,0-2.811-3.223,8.125,8.125,0,0,0-5.043-1.73Zm0,0" transform="translate(0 0)"/></svg>