<svg xmlns="http://www.w3.org/2000/svg" width="23.747" height="23.747" viewBox="0 0 23.747 23.747"><defs><style>.a{fill:#0463e4;}</style></defs><path class="a" d="M5.937,2.77V0H2.77V2.77H0V5.937H2.77v2.77H5.937V5.937h2.77V2.77ZM7.916,5.145H5.145v2.77H3.562V5.145H.792V3.562h2.77V.792H5.145v2.77h2.77Z"/><g transform="translate(15.04 2.77)"><path class="a" d="M304,56v3.166h8.707V56Zm7.916,2.375h-7.124V56.792h7.124Z" transform="translate(-304 -56)"/></g><g transform="translate(15.04 17.019)"><path class="a" d="M304,344v3.166h8.707V344Zm7.916,2.375h-7.124v-1.583h7.124Z" transform="translate(-304 -344)"/></g><g transform="translate(17.81 13.457)"><path class="a" d="M361.583,272a1.583,1.583,0,1,0,1.583,1.583A1.583,1.583,0,0,0,361.583,272Zm0,2.375a.792.792,0,1,1,.792-.792A.792.792,0,0,1,361.583,274.375Z" transform="translate(-360 -272)"/></g><g transform="translate(17.81 20.581)"><path class="a" d="M361.583,416a1.583,1.583,0,1,0,1.583,1.583A1.583,1.583,0,0,0,361.583,416Zm0,2.375a.792.792,0,1,1,.792-.792A.792.792,0,0,1,361.583,418.375Z" transform="translate(-360 -416)"/></g><g transform="translate(4.354 4.354)"><path class="a" d="M95.916,95.124V88h-.792v7.124H88v.792h7.124v7.124h.792V95.916h7.124v-.792Z" transform="translate(-88 -88)"/></g><g transform="translate(0.232 13.689)"><path class="a" d="M13.723,279.227l-2.539-2.539-1.979,1.979L7.23,276.691l-2.542,2.485L6.67,281.2l-1.982,1.982,2.539,2.539,1.979-1.979,1.979,1.979,2.539-2.539-1.979-1.979ZM12.6,283.184,11.184,284.6l-1.979-1.979L7.227,284.6l-1.419-1.419,1.976-1.976-1.976-2.022L7.223,277.8l1.982,1.984,1.979-1.979,1.419,1.419-1.979,1.979Z" transform="translate(-4.688 -276.688)"/></g></svg>