<svg xmlns="http://www.w3.org/2000/svg" width="19.885" height="18.536" viewBox="0 0 19.885 18.536"><defs><style>.a{fill:#0463e4;stroke:#0463e4;stroke-width:0.25px;}</style></defs><g transform="translate(0.125 0.125)"><path class="a" d="M26.165,126.878a.494.494,0,0,0,.494-.494v-6.249a2.144,2.144,0,0,0-2.141-2.141H12.558c-3.771-.169.045.816-.988,0H10.144a3.124,3.124,0,0,0-3.11,2.87c.523-1.561.481-1.89-.011.988v8.908A2.144,2.144,0,0,0,9.165,132.9h8.893a1,1,0,0,1,.712.295l2.763,2.763a1.025,1.025,0,0,0,1.749-.724v-2.077a.256.256,0,0,1,.256-.256h.979a2.144,2.144,0,0,0,2.141-2.141v-2.088a.494.494,0,0,0-.988,0v2.088a1.154,1.154,0,0,1-1.153,1.153h-.979a1.246,1.246,0,0,0-1.245,1.245v2.077a.038.038,0,0,1-.062.026L19.469,132.5a1.982,1.982,0,0,0-1.411-.584H9.165a1.154,1.154,0,0,1-1.153-1.153v-9.646a2.135,2.135,0,0,1,2.132-2.132H24.517a1.154,1.154,0,0,1,1.153,1.153v6.249a.494.494,0,0,0,.494.494Z" transform="translate(-7.024 -117.974)"/></g></svg>