<svg xmlns="http://www.w3.org/2000/svg" width="19.585" height="19.585" viewBox="0 0 19.585 19.585"><defs><style>.a{fill:#0463e4;}</style></defs><path class="a" d="M29.163,29.416a.289.289,0,0,0,.289-.289V28.039a.289.289,0,0,0-.578,0v1.088A.289.289,0,0,0,29.163,29.416Z" transform="translate(-24.887 -23.948)"/><path class="a" d="M20.089,79.638a.289.289,0,0,0-.281-.218H12.521a.289.289,0,0,0-.281.218,4.049,4.049,0,1,0,7.849,0ZM16.165,84.1a3.475,3.475,0,0,1-3.471-3.471A3.439,3.439,0,0,1,12.753,80h6.824a3.469,3.469,0,0,1-3.412,4.1Z" transform="translate(-10.898 -67.079)"/><path class="a" d="M24.046,22.763H22.961v-.7a.289.289,0,0,0-.289-.289h-.206V9.243h1.188a.289.289,0,0,0,.289-.289V7.962a.289.289,0,0,0-.289-.289H22.466v-1.2a.289.289,0,0,0-.289-.289h-.992a.289.289,0,0,0-.289.289v1.2H19.646V6.314A.783.783,0,0,0,19.6,4.749H16.133a.783.783,0,1,0-.041,1.566V7.673h-.455a.289.289,0,0,0-.289.289v.992a.289.289,0,0,0,.289.289h.455v7.467a1.777,1.777,0,0,0,3.553,0V9.243H20.9V21.772h-.207a.289.289,0,0,0-.289.289v.7H12.358A5.038,5.038,0,0,0,12.29,13.8V7.434a.783.783,0,1,0-.041-1.566H7.787a.784.784,0,0,0-.042,1.566V13.8a5.038,5.038,0,0,0-.068,8.961H5.039a.289.289,0,0,0-.289.289v.992a.289.289,0,0,0,.289.289H24.046a.289.289,0,0,0,.289-.289v-.992a.289.289,0,0,0-.289-.289Zm-2.572-16h.413v.909h-.413Zm-5.547-1.23a.207.207,0,0,1,.207-.207H19.6a.207.207,0,1,1,0,.413H16.133A.207.207,0,0,1,15.927,5.534Zm.744.785h2.4V7.673h-2.4Zm-.744,1.932h7.437v.413H15.927Zm3.14,1.529h-.7a.289.289,0,0,0,0,.578h.7V10.9h-.7a.289.289,0,0,0,0,.578h.7v.537h-.7a.289.289,0,0,0,0,.578h.7v.537h-.7a.289.289,0,0,0,0,.578h.7v.537h-.7a.289.289,0,0,0,0,.578h.7v1.889a1.2,1.2,0,0,1-2.4,0V9.243h2.4Zm2.406-.537h.413V21.772h-.413Zm-.5,13.107h1.4v.413h-1.4ZM7.58,6.653a.207.207,0,0,1,.207-.207h4.462a.207.207,0,1,1,0,.413H7.787A.207.207,0,0,1,7.58,6.653ZM5.555,18.3a4.474,4.474,0,0,1,2.6-4.054.289.289,0,0,0,.168-.263V7.438h3.388V8.1h-.7a.289.289,0,0,0,0,.578h.7v.537h-.7a.289.289,0,0,0,0,.578h.7v.537h-.7a.289.289,0,0,0,0,.578h.7v.537h-.7a.289.289,0,0,0,0,.578h.7v.537h-.7a.289.289,0,0,0,0,.578h.7v.848a.289.289,0,0,0,.169.263A4.462,4.462,0,1,1,5.555,18.3Zm18.2,5.454H5.328v-.413H23.756Z" transform="translate(-4.75 -4.748)"/><path class="a" d="M28.172,89.792a.785.785,0,1,0,.785.785A.785.785,0,0,0,28.172,89.792Zm0,.992a.207.207,0,1,1,.207-.207A.207.207,0,0,1,28.172,90.784Z" transform="translate(-23.646 -75.737)"/><path class="a" d="M44.659,83.917a.785.785,0,1,0,.785.785A.785.785,0,0,0,44.659,83.917Zm0,.992a.207.207,0,1,1,.207-.207A.207.207,0,0,1,44.659,84.909Z" transform="translate(-37.408 -70.833)"/><path class="a" d="M30.387,63.423a.785.785,0,1,0,.785-.785A.785.785,0,0,0,30.387,63.423Zm.785-.207a.207.207,0,1,1-.207.207A.207.207,0,0,1,31.172,63.216Z" transform="translate(-26.15 -53.07)"/></svg>