<svg xmlns="http://www.w3.org/2000/svg" width="20.993" height="18.275" viewBox="0 0 20.993 18.275"><defs><style>.a{fill:#0463e4;stroke:#0463e4;stroke-width:0.25px;}</style></defs><g transform="translate(0.125 0.125)"><path class="a" d="M.3,38.83a.3.3,0,0,0,.3-.3V34.86a.71.71,0,0,1,.709-.709h9.44a.71.71,0,0,1,.709.709v.877a.3.3,0,1,0,.608,0V34.86a1.318,1.318,0,0,0-1.317-1.317H1.317A1.318,1.318,0,0,0,0,34.86v3.667A.3.3,0,0,0,.3,38.83Z" transform="translate(0 -33.543)"/><path class="a" d="M20.439,124.109a.3.3,0,0,0,.3-.3v-3.842a1.318,1.318,0,0,0-1.317-1.317H12.073v-3.184a.3.3,0,0,0-.608,0v3.184h-.877a1.921,1.921,0,0,0-1.912,1.765H5.288a1.219,1.219,0,0,0-.867.359l-1.7,1.7a.023.023,0,0,1-.038-.016v-1.277a.766.766,0,0,0-.765-.765h-.6a.71.71,0,0,1-.709-.709v-1.446a.3.3,0,0,0-.608,0V119.7a1.318,1.318,0,0,0,1.317,1.317h.6a.158.158,0,0,1,.158.158v1.277a.63.63,0,0,0,1.076.445l1.7-1.7a.615.615,0,0,1,.438-.181H8.67V126.5a1.318,1.318,0,0,0,1.317,1.317h5.468a.615.615,0,0,1,.438.181l1.7,1.7a.63.63,0,0,0,1.076-.445V127.97a.158.158,0,0,1,.158-.158h.6a1.318,1.318,0,0,0,1.317-1.317v-1.284a.3.3,0,0,0-.608,0V126.5a.71.71,0,0,1-.709.709h-.6a.766.766,0,0,0-.765.765v1.277a.023.023,0,0,1-.038.016l-1.7-1.7a1.219,1.219,0,0,0-.867-.359H9.987a.71.71,0,0,1-.709-.709v-5.931a1.312,1.312,0,0,1,1.311-1.311h8.838a.71.71,0,0,1,.709.709v3.842a.3.3,0,0,0,.3.3Z" transform="translate(0 -111.852)"/><path class="a" d="M310.03,250.294a.3.3,0,0,0-.392.176l-.809,2.124a.3.3,0,1,0,.568.216l.378-.993h2.5l.375.993a.3.3,0,1,0,.569-.215l-1.766-4.68a.453.453,0,0,0-.422-.292h0a.454.454,0,0,0-.421.29l-.47,1.233a.3.3,0,0,0,.568.216l.322-.846,1.016,2.693h-2.042l.2-.523A.3.3,0,0,0,310.03,250.294Z" transform="translate(-296.298 -238.95)"/><path class="a" d="M82.38,82a.3.3,0,1,0,0,.608,3.627,3.627,0,0,0,2.387-.894,3.627,3.627,0,0,0,2.387.894.3.3,0,1,0,0-.608,3.021,3.021,0,0,1-1.962-.722,3.626,3.626,0,0,0,.817-2.009h.937a.3.3,0,0,0,0-.608H85.071V77.655a.3.3,0,1,0-.608,0v1.011H82.587a.3.3,0,1,0,0,.608h.937a3.626,3.626,0,0,0,.817,2.009A3.021,3.021,0,0,1,82.38,82Zm3.02-2.731a3.019,3.019,0,0,1-.632,1.567,3.019,3.019,0,0,1-.632-1.567Z" transform="translate(-78.751 -75.576)"/></g></svg>