<svg xmlns="http://www.w3.org/2000/svg" width="17.572" height="17.473" viewBox="0 0 17.572 17.473"><defs><style>.a{fill:#a0d92a;}.b{fill:#2580a6;}.c{fill:#20557d;}.d{fill:#aebbc4;}.e{fill:#d0dfea;}.f{fill:#fff;}.g{fill:#f1e200;}.h{fill:#c4b800;}.i{fill:#1d9942;}</style></defs><path class="a" d="M3.357,167.256l-2.369-.889,1.777-.3L1.58,163.406l1.481,1.185.888-.888v2.369l1.481,2.369s1.185-2.665-.3-4.739S.4,161.333.4,161.333s-.888,3.258,0,5.331,3.85,2.073,3.85,2.073Z" transform="translate(0 -155.41)"/><path class="b" d="M113.919,393.333l-.511.817a.8.8,0,0,0-.089.663h-3.811a1.184,1.184,0,0,0,1.145,1.481H114.1v-2.962Z" transform="translate(-105.417 -378.821)"/><path class="c" d="M235.452,394.814a.753.753,0,0,0,.036-.231.817.817,0,0,0-.124-.432l-.511-.817h-.185v2.962h3.451a1.184,1.184,0,0,0,1.145-1.481Z" transform="translate(-225.98 -378.821)"/><path class="d" d="M235.362,164.223a.821.821,0,0,1-.7,1.256v2.369h.3v.409a1.177,1.177,0,0,1,.888-.409h.592a1.185,1.185,0,0,1-1.185,1.185h-.3v.888h-.111l.511.817a.817.817,0,0,1,.124.432.754.754,0,0,1-.036.231h3.811a1.2,1.2,0,0,0-.076-.215l-2.447-5.116v-3.554a.592.592,0,0,0,0-1.185h-2.073v1.777Z" transform="translate(-225.979 -155.41)"/><path class="e" d="M114.41,170.739l.511-.817h-.111v-1.481h-.3a1.185,1.185,0,0,1-1.185-1.185h.592a1.18,1.18,0,0,1,1.02.592h.164v-2.369a.821.821,0,0,1-.7-1.256l.7-1.114v-1.777h-2.073a.592.592,0,1,0,0,1.185v3.554l-2.447,5.116a1.2,1.2,0,0,0-.076.215h3.811A.8.8,0,0,1,114.41,170.739Zm-2.3.2-.53-.265.3-.592.53.265Zm.592-1.185-.53-.265.592-1.185.53.265Z" transform="translate(-106.419 -155.41)"/><path class="b" d="M212.587,210.447a.821.821,0,0,0,.7,1.256v-2.369Z" transform="translate(-204.595 -201.633)"/><path class="c" d="M235.362,210.446l-.7-1.114V211.7A.821.821,0,0,0,235.362,210.446Z" transform="translate(-225.979 -201.633)"/><path class="e" d="M237.123,75.434l-.444-.444-1.716,1.716h-.3V77h.889Z" transform="translate(-225.98 -72.263)"/><path class="c" d="M309.193,11.2l-.826.818.444.444.974-.966a1.043,1.043,0,0,0-.589-1.773A1.047,1.047,0,0,1,309.193,11.2Z" transform="translate(-296.951 -9.414)"/><path class="f" d="M236.679,63.434l-.444-.444-1.568,1.568v.592h.3Z" transform="translate(-225.98 -60.707)"/><path class="b" d="M282.212,10.91a1.047,1.047,0,0,0,0-1.477,1.042,1.042,0,0,0-.892.292l-.974.966,1.037,1.037Z" transform="translate(-269.971 -9.122)"/><path class="a" d="M317.778,235.33a3.118,3.118,0,0,0-.888,3.543l1.185-1.174.592-1.777.3.888,2.073-.888-2.962,3.258a2.35,2.35,0,0,0,2.665-.3,5.139,5.139,0,0,0,1.481-4.146S319.554,233.849,317.778,235.33Z" transform="translate(-304.944 -225.843)"/><g transform="translate(6.91 11.846)"><path class="g" d="M242.963,338.518a1.185,1.185,0,0,0,1.185-1.185h-.592a1.177,1.177,0,0,0-.888.409v.776Z" transform="translate(-240.594 -336.741)"/><path class="g" d="M188.28,321.925a1.18,1.18,0,0,0-1.02-.592h-.592a1.185,1.185,0,0,0,1.185,1.185h.3v-.592Z" transform="translate(-186.667 -321.333)"/></g><path class="h" d="M120.373,16.52a1.465,1.465,0,0,1-.7-.185,1.476,1.476,0,1,0,2-2,1.464,1.464,0,0,1,.185.7A1.481,1.481,0,0,1,120.373,16.52Z" transform="translate(-115.24 -13.855)"/><path class="g" d="M115.555,11.7a1.481,1.481,0,0,0,1.481-1.481,1.464,1.464,0,0,0-.185-.7,1.47,1.47,0,0,0-2,2A1.464,1.464,0,0,0,115.555,11.7Zm-.3-1.185h.592v.592h-.592Z" transform="translate(-110.422 -9.037)"/><path class="h" d="M364.044,139.6a.878.878,0,0,1-.255-.042.886.886,0,1,0,1.1-1.1.878.878,0,0,1,.042.255A.888.888,0,0,1,364.044,139.6Z" transform="translate(-350.322 -133.379)"/><g transform="translate(9.663 1.271)"><path class="g" d="M362.963,138.518a.888.888,0,0,0,.888-.888.221.221,0,0,0-.3-.3.888.888,0,0,0-.888.888.221.221,0,0,0,.3.3Z" transform="translate(-358.904 -133.57)"/><path class="g" d="M262.491,37.577l.592.592.419-.419-.3-.3-.444-.444-1.037-1.037-.3-.3-.419.419.592.592.444.444Z" transform="translate(-261.01 -35.677)"/></g><path class="i" d="M227.259,338.518v-1.185h-.592v2.073h.592Z" transform="translate(-218.276 -324.894)"/><g transform="translate(5.165 12.898)"><rect class="f" width="1.324" height="0.592" transform="translate(1.714 0.265) rotate(116.565)"/><rect class="f" width="0.662" height="0.592" transform="translate(0.826 2.042) rotate(116.565)"/></g><path class="g" d="M427.852,1.925V1.333h-.592v.592h-.592v.592h.592V3.11h.592V2.518h.592V1.925Z" transform="translate(-410.872 -1.333)"/><rect class="f" width="0.592" height="0.592" transform="translate(4.837 1.481)"/><path class="g" d="M19.259,51.11h.592v-.592h.592v-.592h-.592v-.592h-.592v.592h-.592v.592h.592Z" transform="translate(-17.976 -47.556)"/></svg>