<svg xmlns="http://www.w3.org/2000/svg" xmlns:xlink="http://www.w3.org/1999/xlink" width="17.773" height="18.65" viewBox="0 0 17.773 18.65"><defs><style>.a{fill:url(#a);}.b{opacity:0.1;}.c{fill:#2626bc;}.d{fill:#02ffb3;}.e{fill:#fff;}.f{fill:#9fb0fe;}.g{fill:#ff7eb8;}.h{fill:#01eca5;}.i{fill:#6583fe;}</style><linearGradient id="a" y1="0.5" x2="1" y2="0.5" gradientUnits="objectBoundingBox"><stop offset="0.049" stop-color="#ffdbed"/><stop offset="0.999" stop-color="#d2deff"/></linearGradient></defs><g transform="translate(0 0)"><path class="a" d="M22.035.177C18.6,1.188,19.288,3.586,18.9,6.244c-.48,3.317-2.553,1.616-4.936,3.407-4.118,3.1-1.127,9.931,3.987,8.893,2.716-.551,3.271-2.553,4.378-4.692,1.433-2.767,3.809-2.013,5.94-3.819C32.6,6.368,26.911-1.256,22.035.177Z" transform="translate(-12.034 0)"/></g><g transform="translate(1.466 0.866)"><g class="b" transform="translate(0.152 0.874)"><path class="c" d="M69.379,55.915q.292-.324.539-.65c1.031-1.36,1.331-2.573.845-3.415s-1.687-1.189-3.38-.976c-.27.034-.548.082-.833.142-.09-.276-.187-.541-.293-.792q-.033-.079-.068-.156a.814.814,0,0,0-.828-1.379,2.177,2.177,0,0,0-1.639-.9c-.972,0-1.873.866-2.535,2.44-.106.251-.2.516-.293.792-.284-.06-.562-.108-.833-.142-1.694-.213-2.894.134-3.38.976s-.186,2.055.845,3.415q.247.326.539.65-.282.313-.523.629a.814.814,0,0,0-.816,1.357,2.294,2.294,0,0,0-.046,2.08,2.653,2.653,0,0,0,2.46,1.037,7.417,7.417,0,0,0,.921-.061c.27-.034.548-.082.833-.142.09.276.187.541.293.792.663,1.573,1.563,2.44,2.535,2.44s1.873-.866,2.535-2.44c.106-.251.2-.516.293-.792.284.06.562.108.833.142a7.411,7.411,0,0,0,.921.061,2.653,2.653,0,0,0,2.46-1.037c.486-.842.186-2.055-.845-3.415q-.247-.326-.539-.65Zm-1.951-4.68a6.947,6.947,0,0,1,.863-.057,2.362,2.362,0,0,1,2.157.854c.4.7.1,1.8-.82,3.013q-.229.3-.5.6a14.954,14.954,0,0,0-1.981-1.711,14.956,14.956,0,0,0-.491-2.571q.395-.083.771-.13Zm-4.51,8.579a13.811,13.811,0,0,1-1.777.57,14.216,14.216,0,0,1-.448-2.208c.4.277.825.543,1.263.8q.484.279.972.525a.813.813,0,0,0-.011.317Zm1.6-.317q.487-.245.973-.525c.438-.253.86-.52,1.263-.8a14.218,14.218,0,0,1-.448,2.208,13.815,13.815,0,0,1-1.777-.57.811.811,0,0,0-.011-.317Zm.79-.84q-.474.273-.951.513a.814.814,0,0,0-1.264,0q-.476-.24-.951-.513c-.525-.3-1.027-.626-1.5-.963-.056-.576-.085-1.172-.085-1.779s.029-1.2.085-1.779c.471-.337.973-.659,1.5-.963s1.056-.576,1.583-.816c.527.24,1.058.513,1.583.816s1.027.626,1.5.963c.056.576.085,1.172.085,1.779s-.029,1.2-.085,1.779C66.332,58.03,65.831,58.353,65.305,58.657Zm-5.055-1.25a14.215,14.215,0,0,1-1.688-1.492,14.217,14.217,0,0,1,1.688-1.492c-.038.487-.058.986-.058,1.492S60.212,56.919,60.25,57.406Zm1.707-4.549c-.438.253-.86.52-1.263.8a14.22,14.22,0,0,1,.448-2.208,14.216,14.216,0,0,1,2.136.716c-.441.21-.883.443-1.321.7Zm2.209-.7a14.219,14.219,0,0,1,2.136-.716,14.216,14.216,0,0,1,.448,2.208q-.6-.415-1.263-.8C65.049,52.6,64.607,52.372,64.166,52.162Zm3.028,2.261a14.216,14.216,0,0,1,1.688,1.492,14.219,14.219,0,0,1-1.688,1.492c.038-.487.058-.986.058-1.492S67.233,54.91,67.194,54.423Zm-5.672-4.058c.593-1.409,1.4-2.217,2.2-2.217a1.83,1.83,0,0,1,1.338.753.814.814,0,0,0,.805,1.332q.029.065.057.132.147.349.273.732a14.958,14.958,0,0,0-2.472.86,14.957,14.957,0,0,0-2.472-.86Q61.376,50.714,61.523,50.365Zm-3.706,4.68c-.923-1.218-1.222-2.317-.82-3.013a2.362,2.362,0,0,1,2.157-.854,6.949,6.949,0,0,1,.863.057q.375.047.771.13a14.957,14.957,0,0,0-.491,2.571,14.953,14.953,0,0,0-1.981,1.711q-.269-.3-.5-.6Zm2.2,5.55c-1.517.19-2.617-.1-3.02-.8a1.939,1.939,0,0,1,.047-1.7.814.814,0,0,0,.815-1.364q.211-.274.456-.548a14.954,14.954,0,0,0,1.981,1.711,14.956,14.956,0,0,0,.491,2.571Q60.392,60.547,60.016,60.595Zm5.906.87c-.593,1.409-1.4,2.217-2.2,2.217s-1.606-.808-2.2-2.217q-.147-.349-.273-.732a14.234,14.234,0,0,0,1.806-.581.814.814,0,0,0,1.332,0,14.241,14.241,0,0,0,1.806.581Q66.069,61.115,65.922,61.465ZM70.448,59.8c-.4.7-1.5.987-3.02.8q-.375-.047-.771-.13a14.955,14.955,0,0,0,.491-2.571,14.953,14.953,0,0,0,1.981-1.711q.269.3.5.6C70.552,58,70.85,59.1,70.448,59.8Z" transform="translate(-56.454 -47.784)"/><ellipse class="c" cx="1.73" cy="1.73" rx="1.73" ry="1.73" transform="translate(5.539 6.401)"/></g><g transform="translate(5.691 6.401)"><ellipse class="d" cx="1.73" cy="1.73" rx="1.73" ry="1.73"/><path class="e" d="M240.448,216.862h-.443v-.869a.039.039,0,0,0-.073-.018l-.66,1.277a.039.039,0,0,0,.034.056h.443v.869a.039.039,0,0,0,.073.018l.66-1.277A.039.039,0,0,0,240.448,216.862Z" transform="translate(-238.148 -215.356)"/></g><ellipse class="f" cx="0.814" cy="0.814" rx="0.814" ry="0.814" transform="translate(8.551 0.845)"/><ellipse class="g" cx="0.814" cy="0.814" rx="0.814" ry="0.814" transform="translate(0.182 8.722)"/><ellipse class="e" cx="0.814" cy="0.814" rx="0.814" ry="0.814" transform="translate(6.607 11.085)"/><path class="c" d="M65.352,31.915q.292-.324.539-.65c1.031-1.36,1.331-2.573.845-3.415s-1.687-1.189-3.38-.976c-.27.034-.548.082-.832.142q-.132-.405-.287-.775a1,1,0,0,0-1.03-1.694,2.071,2.071,0,0,0-1.512-.762c-.972,0-1.873.866-2.535,2.44-.106.251-.2.516-.293.792-.284-.06-.562-.108-.833-.142-1.694-.213-2.894.134-3.38.976s-.186,2.055.845,3.415q.247.326.54.65-.215.238-.405.477a1,1,0,0,0-1,1.689,2.2,2.2,0,0,0,.025,1.9,2.607,2.607,0,0,0,2.387,1.036h.076a8.466,8.466,0,0,0,1.749-.2c.09.276.187.541.293.792.663,1.573,1.563,2.44,2.535,2.44s1.873-.866,2.535-2.44c.106-.251.2-.516.293-.792a8.463,8.463,0,0,0,1.749.2h.076a2.607,2.607,0,0,0,2.387-1.036c.486-.842.186-2.055-.845-3.415-.164-.217-.345-.434-.539-.65ZM63.4,27.235c1.517-.191,2.617.1,3.02.8s.1,1.8-.82,3.013q-.229.3-.5.6a14.957,14.957,0,0,0-1.981-1.711,14.918,14.918,0,0,0-.491-2.572Q63.026,27.282,63.4,27.235Zm-4.683,8.644a13.783,13.783,0,0,1-1.6.5,14.219,14.219,0,0,1-.448-2.208c.4.277.825.543,1.263.8.265.153.536.3.807.44a.994.994,0,0,0-.018.467Zm.977-.829a.632.632,0,1,1-.632.632A.633.633,0,0,1,59.695,35.051Zm.959.361c.27-.139.541-.286.806-.44.438-.253.86-.52,1.263-.8a14.222,14.222,0,0,1-.448,2.208,13.768,13.768,0,0,1-1.6-.5.994.994,0,0,0-.018-.467Zm.624-.755c-.259.15-.523.293-.786.429a1,1,0,0,0-1.594,0c-.264-.136-.527-.28-.786-.429-.525-.3-1.027-.626-1.5-.963-.056-.576-.085-1.172-.085-1.779s.029-1.2.085-1.778c.472-.337.974-.66,1.5-.963s1.056-.576,1.583-.816c.527.24,1.058.513,1.583.816s1.027.626,1.5.963c.056.576.084,1.171.084,1.779s-.029,1.2-.085,1.779C62.3,34.03,61.8,34.353,61.278,34.657Zm-5.055-1.25a14.22,14.22,0,0,1-1.688-1.491,14.273,14.273,0,0,1,1.688-1.491c-.038.487-.058.985-.058,1.491S56.184,32.919,56.223,33.406Zm.444-3.752a14.216,14.216,0,0,1,.448-2.208,14.217,14.217,0,0,1,2.136.716c-.441.21-.883.442-1.321.7S57.07,29.377,56.667,29.654Zm3.472-1.492a14.221,14.221,0,0,1,2.137-.716,14.173,14.173,0,0,1,.448,2.208c-.4-.277-.825-.544-1.263-.8S60.58,28.372,60.139,28.162Zm3.028,2.261a14.217,14.217,0,0,1,1.688,1.492,14.219,14.219,0,0,1-1.688,1.492c.038-.487.058-.986.058-1.492S63.205,30.91,63.167,30.423Zm-.9-4.98a.632.632,0,1,1-.632-.632A.633.633,0,0,1,62.271,25.444Zm-4.776.921c.593-1.409,1.4-2.217,2.2-2.217a1.7,1.7,0,0,1,1.217.615,1,1,0,0,0,1,1.639q.138.332.257.7a14.958,14.958,0,0,0-2.472.86,14.958,14.958,0,0,0-2.472-.86Q57.348,26.714,57.5,26.365Zm-3.706,4.68c-.923-1.218-1.222-2.317-.82-3.013s1.5-.987,3.02-.8q.375.047.771.13a14.955,14.955,0,0,0-.491,2.572,15.01,15.01,0,0,0-1.981,1.711Q54.018,31.347,53.789,31.045Zm-.518,1.643a.632.632,0,1,1-.632.632A.633.633,0,0,1,53.27,32.688Zm1.775,3.964c-1.318-.016-1.856-.474-2.076-.854a1.826,1.826,0,0,1-.02-1.535,1,1,0,0,0,.995-1.677q.162-.2.343-.4a14.953,14.953,0,0,0,1.981,1.711,14.955,14.955,0,0,0,.491,2.571A7.928,7.928,0,0,1,55.045,36.652Zm6.849.812c-.593,1.409-1.4,2.217-2.2,2.217s-1.606-.808-2.2-2.217q-.147-.349-.273-.733a14.158,14.158,0,0,0,1.632-.515,1,1,0,0,0,1.681,0,14.16,14.16,0,0,0,1.632.515Q62.041,37.115,61.894,37.465ZM66.421,35.8a2.367,2.367,0,0,1-2.076.854,7.955,7.955,0,0,1-1.714-.187,14.956,14.956,0,0,0,.491-2.571A14.954,14.954,0,0,0,65.1,32.182q.269.3.5.6C66.524,34,66.823,35.1,66.421,35.8Z" transform="translate(-52.274 -23.784)"/><path class="c" d="M206.081,197.369a.182.182,0,0,0-.124.342,1.548,1.548,0,1,1-1.075.007.182.182,0,1,0-.129-.341,1.911,1.911,0,1,0,1.328-.009Z" transform="translate(-198.008 -191.036)"/><path class="g" d="M111.412,44.4a.182.182,0,0,1-.129-.311l.121-.121-.182-.116a.182.182,0,0,1-.031-.283l.282-.282a.182.182,0,0,1,.258.258l-.121.121.182.116a.182.182,0,0,1,.031.283l-.282.282A.181.181,0,0,1,111.412,44.4Z" transform="translate(-108.993 -42.53)"/><path class="g" d="M386.592,313.257a.182.182,0,0,1-.129-.311l.121-.121-.182-.116a.182.182,0,0,1-.031-.283l.282-.282a.182.182,0,0,1,.258.258l-.121.121.182.116a.182.182,0,0,1,.031.283l-.282.282A.181.181,0,0,1,386.592,313.257Z" transform="translate(-374.15 -301.589)"/><path class="h" d="M116.353,149.438a.182.182,0,0,1-.182-.182.219.219,0,0,0-.219-.219.182.182,0,0,1,0-.364.219.219,0,0,0,.219-.219.182.182,0,1,1,.364,0,.219.219,0,0,0,.219.219.182.182,0,0,1,0,.364.219.219,0,0,0-.219.219A.182.182,0,0,1,116.353,149.438Z" transform="translate(-113.457 -143.737)"/><path class="i" d="M137.8,418.271a.182.182,0,0,1-.182-.182.219.219,0,0,0-.219-.219.182.182,0,0,1,0-.364.219.219,0,0,0,.219-.219.182.182,0,1,1,.364,0,.219.219,0,0,0,.219.219.182.182,0,1,1,0,.364.219.219,0,0,0-.219.219A.182.182,0,0,1,137.8,418.271Z" transform="translate(-134.119 -402.778)"/><path class="g" d="M440.427,245.569a.182.182,0,0,1-.182-.182.219.219,0,0,0-.218-.219.182.182,0,1,1,0-.364.219.219,0,0,0,.218-.219.182.182,0,0,1,.364,0,.219.219,0,0,0,.219.219.182.182,0,1,1,0,.364.219.219,0,0,0-.219.219A.182.182,0,0,1,440.427,245.569Z" transform="translate(-425.726 -236.367)"/></g></svg>