<svg xmlns="http://www.w3.org/2000/svg" width="228.162" height="228.165" viewBox="0 0 228.162 228.165"><defs><style>.a{fill:#537980;}.b{fill:#385b60;}.c{fill:#eaeaf0;}.d{fill:#9adb07;}.e{fill:#d8d8d8;}.f{fill:#94c600;}.g{fill:#051720;}</style></defs><g transform="translate(3.369 3.373)"><path class="a" d="M0,0H11.552V197.218H0Z" transform="translate(199.644 213.956) rotate(180)"/><path class="b" d="M0,0H23.105V15.638H0Z" transform="translate(205.421 213.956) rotate(180)"/><path class="c" d="M86.336,104.443V13.276H40.126v91.167a55.356,55.356,0,1,0,46.21,0Z" transform="translate(-5.232 -0.229)"/><path class="d" d="M101.476,91.914a43.8,43.8,0,0,1-87.606,0A43.345,43.345,0,0,1,15.218,81.17h84.911a43.345,43.345,0,0,1,1.348,10.744Z" transform="translate(0.32 62.601)"/><rect class="e" width="63.539" height="11.552" rx="3" transform="translate(26.23 13.047)"/><path class="a" d="M6.5,115.5H227.923v11.552H6.5Z" transform="translate(-6.5 94.37)"/><path class="c" d="M75.126,6.5V142.463a17.329,17.329,0,1,0,34.658,0V6.5Z" transform="translate(57.008 -6.5)"/><rect class="e" width="11.552" height="51.986" rx="3" transform="translate(175.455) rotate(90)"/><path class="b" d="M0,0H11.552V93.383H0Z" transform="translate(216.852 34.064) rotate(90)"/><g transform="translate(43.586 111.459)"><circle class="f" cx="5.776" cy="5.776" r="5.776" transform="translate(0 52.283)"/><circle class="f" cx="5.776" cy="5.776" r="5.776" transform="translate(31.744 40.971)"/><circle class="f" cx="5.776" cy="5.776" r="5.776" transform="translate(5.776)"/></g></g><g transform="translate(0 0)"><path class="g" d="M111.809,62.254a3.371,3.371,0,0,0-3.369,3.362V74.28a3.369,3.369,0,1,0,6.739,0V65.616a3.371,3.371,0,0,0-3.369-3.362Z" transform="translate(91.206 48.468)"/><path class="g" d="M32.243,27.75a3.369,3.369,0,0,0-3.369,3.369V43.794a3.369,3.369,0,0,0,6.739,0V31.119a3.371,3.371,0,0,0-3.369-3.369Z" transform="translate(17.575 16.538)"/><path class="g" d="M13.574,81.956a47.173,47.173,0,1,0,91.438,0,3.368,3.368,0,0,0-3.273-2.536h-84.9a3.366,3.366,0,0,0-3.264,2.536Zm5.969,4.2h79.5a40.434,40.434,0,1,1-79.5,0Z" transform="translate(2.07 64.354)"/><path class="g" d="M229.542,214.622H216.908v-8.183a3.369,3.369,0,0,0-3.369-3.369h-2.4V140.653a3.369,3.369,0,0,0-6.739,0v62.416h-4.814V57.107H204.4v48.617a3.369,3.369,0,0,0,6.739,0V57.107h13.836a3.369,3.369,0,0,0,3.37-3.369V42.185a3.371,3.371,0,0,0-3.37-3.369H211.135V24.853a3.371,3.371,0,0,0-3.37-3.369H196.213a3.371,3.371,0,0,0-3.369,3.369V38.816H178.288V22.993A9.126,9.126,0,0,0,177.8,4.752H137.365A9.126,9.126,0,1,0,136.891,23V38.816h-5.3a3.371,3.371,0,0,0-3.369,3.369V53.738a3.369,3.369,0,0,0,3.369,3.369h5.3v86.986a20.7,20.7,0,0,0,41.4,0V57.107h14.556V203.069h-2.411a3.371,3.371,0,0,0-3.369,3.369v8.183H158.943a3.369,3.369,0,1,0,0,6.739h67.23v4.814H11.489v-4.814H140.261a3.369,3.369,0,0,0,0-6.739H93.383a58.712,58.712,0,0,0,22.075-83.836,3.369,3.369,0,1,0-5.653,3.658,51.986,51.986,0,1,1-65.389-19.039,3.369,3.369,0,0,0,1.962-3.061V36.088H85.849v7.654H77.673a3.369,3.369,0,1,0,0,6.739h8.175v6.258H77.673a3.369,3.369,0,1,0,0,6.739h8.175v6.258H77.673a3.369,3.369,0,1,0,0,6.739h8.175v6.258H77.673a3.369,3.369,0,1,0,0,6.739h8.175v6.258H77.673a3.369,3.369,0,1,0,0,6.739h8.175v9.877a3.371,3.371,0,0,0,1.964,3.061,51.67,51.67,0,0,1,12.689,8.262,3.37,3.37,0,0,0,4.467-5.047,58.323,58.323,0,0,0-12.38-8.393V36.04a9.126,9.126,0,1,0-.474-18.245l-51.986,0a9.128,9.128,0,0,0-.489,18.243v74.188a58.7,58.7,0,0,0-.793,104.394H8.119a3.371,3.371,0,0,0-3.369,3.369v11.553a3.371,3.371,0,0,0,3.369,3.369H229.542a3.371,3.371,0,0,0,3.37-3.369V217.991a3.371,3.371,0,0,0-3.369-3.37Zm-29.959-186.4H204.4v10.59h-4.814ZM134.958,13.9a2.411,2.411,0,0,1,2.407-2.407H177.8a2.407,2.407,0,1,1,0,4.814H137.365a2.411,2.411,0,0,1-2.407-2.407Zm8.664,9.146h27.919V38.816H143.63Zm-8.664,22.512H221.6v4.814H134.958Zm36.583,17.81h-8.183a3.369,3.369,0,0,0,0,6.739h8.191v6.258h-8.191a3.369,3.369,0,0,0,0,6.739h8.191v6.258h-8.191a3.369,3.369,0,0,0,0,6.739h8.191v6.258h-8.191a3.369,3.369,0,0,0,0,6.739h8.191v6.258h-8.191a3.369,3.369,0,0,0,0,6.739h8.191v22a13.959,13.959,0,0,1-27.919,0V57.107h27.919ZM193.8,214.622v-4.814h16.366v4.814ZM37.721,26.942a2.409,2.409,0,0,1,2.407-2.407H92.114a2.407,2.407,0,1,1,0,4.814H40.128A2.407,2.407,0,0,1,37.721,26.942Z" transform="translate(-4.75 -4.748)"/><path class="g" d="M36.533,108.083a9.146,9.146,0,1,0-9.146-9.146,9.146,9.146,0,0,0,9.146,9.146Zm0-11.552a2.407,2.407,0,1,1-2.407,2.407,2.407,2.407,0,0,1,2.407-2.407Z" transform="translate(16.199 73.952)"/><path class="g" d="M53.02,102.208a9.146,9.146,0,1,0-9.146-9.146A9.146,9.146,0,0,0,53.02,102.208Zm0-11.552a2.407,2.407,0,1,1-2.407,2.407,2.407,2.407,0,0,1,2.407-2.407Z" transform="translate(31.456 68.516)"/><path class="g" d="M30.387,71.784a9.146,9.146,0,1,0,9.146-9.146,9.146,9.146,0,0,0-9.146,9.146Zm9.146-2.407a2.407,2.407,0,1,1-2.407,2.407A2.407,2.407,0,0,1,39.533,69.377Z" transform="translate(18.975 48.824)"/></g></svg>